<?xml version="1.0" encoding="iso-8859-1"?>
<!-- Generator: Adobe Illustrator 17.1.0, SVG Export Plug-In . SVG Version: 6.00 Build 0)  -->
<!DOCTYPE svg PUBLIC "-//W3C//DTD SVG 1.1//EN" "http://www.w3.org/Graphics/SVG/1.1/DTD/svg11.dtd">
<svg version="1.1" id="Capa_1" xmlns="http://www.w3.org/2000/svg" xmlns:xlink="http://www.w3.org/1999/xlink" x="0px" y="0px"
	 viewBox="0 0 487.865 487.865" style="enable-background:new 0 0 487.865 487.865;" xml:space="preserve">
<path d="M377.222,0H110.643C82.154,0,58.976,23.178,58.976,51.666v384.533c0,28.488,23.178,51.666,51.667,51.666h266.579
	c28.489,0,51.667-23.178,51.667-51.666V51.666C428.889,23.178,405.711,0,377.222,0z M418.889,436.199
	c0,22.975-18.692,41.666-41.667,41.666H110.643c-22.975,0-41.667-18.691-41.667-41.666V51.666C68.976,28.691,87.668,10,110.643,10
	h266.579c22.975,0,41.667,18.691,41.667,41.666V436.199z M393.469,49.672H94.396c-2.761,0-5,2.238-5,5v378.51c0,2.762,2.239,5,5,5
	h299.073c2.761,0,5-2.238,5-5V54.672C398.469,51.91,396.23,49.672,393.469,49.672z M388.469,428.182H99.396V59.672h190.737v42.729
	h-148.6c-2.761,0-5,2.238-5,5s2.239,5,5,5h148.6v41.201h-123c-2.761,0-5,2.238-5,5s2.239,5,5,5h123v24.134h-148.6
	c-2.761,0-5,2.238-5,5s2.239,5,5,5h148.6v23.262h-148.6c-2.761,0-5,2.238-5,5s2.239,5,5,5h148.6v23.262h-148.6c-2.761,0-5,2.238-5,5
	s2.239,5,5,5h148.6v23.261h-123c-2.761,0-5,2.238-5,5s2.239,5,5,5h123.618c0.536,0.985,1.388,1.79,2.469,2.237
	c1.869,0.775,4.02,0.347,5.449-1.084l1.153-1.153h58.888l1.153,1.153c0.957,0.957,2.236,1.465,3.537,1.465
	c0.644,0,1.293-0.124,1.912-0.381c1.869-0.773,3.087-2.597,3.087-4.619V96.956c0-2.762-2.239-5-5-5s-5,2.238-5,5v186.108
	l-25.597-25.605c-0.938-0.938-2.21-1.465-3.536-1.465s-2.598,0.527-3.536,1.465l-25.597,25.605V59.672h58.267v7.266
	c0,2.762,2.239,5,5,5s5-2.238,5-5v-7.266h20.07V428.182z M309.819,287.521l19.448-19.454l19.448,19.454H309.819z M243.933,440.271
	c-9.374,0-17,7.626-17,17s7.626,17,17,17s17-7.626,17-17S253.307,440.271,243.933,440.271z M243.933,464.271c-3.86,0-7-3.141-7-7
	s3.14-7,7-7s7,3.141,7,7S247.792,464.271,243.933,464.271z M368.399,329.263c0,2.762-2.239,5-5,5H141.533c-2.761,0-5-2.238-5-5
	s2.239-5,5-5h221.867C366.161,324.263,368.399,326.501,368.399,329.263z M368.399,362.524c0,2.762-2.239,5-5,5H141.533
	c-2.761,0-5-2.238-5-5s2.239-5,5-5h221.867C366.161,357.524,368.399,359.763,368.399,362.524z M342.799,395.785c0,2.762-2.239,5-5,5
	H141.533c-2.761,0-5-2.238-5-5s2.239-5,5-5h196.267C340.561,390.785,342.799,393.023,342.799,395.785z"/>
<g>
</g>
<g>
</g>
<g>
</g>
<g>
</g>
<g>
</g>
<g>
</g>
<g>
</g>
<g>
</g>
<g>
</g>
<g>
</g>
<g>
</g>
<g>
</g>
<g>
</g>
<g>
</g>
<g>
</g>
</svg>
