<?xml version="1.0" encoding="iso-8859-1"?>
<!-- Generator: Adobe Illustrator 19.0.0, SVG Export Plug-In . SVG Version: 6.00 Build 0)  -->
<svg version="1.1" id="Layer_1" xmlns="http://www.w3.org/2000/svg" xmlns:xlink="http://www.w3.org/1999/xlink" x="0px" y="0px"
	 viewBox="0 0 475.292 475.292" style="enable-background:new 0 0 475.292 475.292;" xml:space="preserve">
<g>
	<g>
		<path d="M395.216,101.284c-1.676-14.668-12.16-25.104-26.712-26.576c-0.404-0.044-0.808-0.064-1.212-0.064H226.956
			c-3.18,0-6.232,1.264-8.484,3.516L3.513,293.12c-4.684,4.684-4.684,12.284,0.004,16.968l155.56,155.564
			c2.34,2.344,5.412,3.516,8.484,3.516c3.06,0,6.124-1.164,8.464-3.492l215.732-214.52c2.268-2.252,3.54-5.312,3.54-8.508v-140
			C395.297,102.188,395.268,101.736,395.216,101.284z M372,238.124L167.584,440.22L28.969,301.604l203.032-203.48h136
			c2.836,0.416,3.528,1.056,4,4V238.124z"/>
	</g>
</g>
<g>
	<g>
		<path d="M316.748,153.192c-6.796-6.804-15.84-10.548-25.456-10.548c-9.616,0-18.66,3.748-25.456,10.548
			c-6.8,6.796-10.544,15.836-10.544,25.452c0,9.616,3.744,18.656,10.544,25.452c6.796,6.8,15.84,10.548,25.456,10.548
			c9.616,0,18.656-3.744,25.452-10.548h0.004c6.8-6.8,10.544-15.84,10.544-25.452C327.292,169.028,323.548,159.988,316.748,153.192z
			 M305.432,192.784c-3.776,3.776-8.8,5.86-14.14,5.86c-5.344,0-10.364-2.084-14.144-5.86c-3.776-3.776-5.856-8.8-5.856-14.14
			c0-5.34,2.08-10.364,5.86-14.14c3.776-3.78,8.8-5.86,14.14-5.86c5.34,0,10.364,2.084,14.144,5.86
			c3.776,3.776,5.856,8.8,5.856,14.14C311.292,183.984,309.213,189.008,305.432,192.784z"/>
	</g>
</g>
<g>
	<g>
		<path d="M151.896,222.648c-17.976,0-32.604,14.624-32.604,32.604c0,17.98,14.624,32.604,32.604,32.604
			c17.98,0,32.608-14.624,32.608-32.604C184.505,237.272,169.876,222.648,151.896,222.648z M151.896,271.852
			c-9.156,0-16.604-7.448-16.604-16.604s7.448-16.604,16.604-16.604c9.16,0,16.608,7.448,16.608,16.604
			S161.057,271.852,151.896,271.852z"/>
	</g>
</g>
<g>
	<g>
		<path d="M218.688,289.436c-17.98,0-32.608,14.624-32.608,32.604c0,17.98,14.628,32.604,32.608,32.604
			c17.976,0,32.604-14.624,32.604-32.604C251.292,304.06,236.669,289.436,218.688,289.436z M218.688,338.64
			c-9.16,0-16.608-7.448-16.608-16.604s7.448-16.604,16.608-16.604c9.156,0,16.604,7.452,16.604,16.604
			C235.292,331.192,227.844,338.64,218.688,338.64z"/>
	</g>
</g>
<g>
	<g>
		<path d="M241.917,232.02c-3.12-3.124-8.192-3.124-11.312,0L128.669,333.956c-3.124,3.124-3.124,8.188,0,11.312
			c1.56,1.564,3.608,2.344,5.656,2.344c2.044,0,4.096-0.78,5.656-2.344l101.936-101.936
			C245.041,240.208,245.041,235.144,241.917,232.02z"/>
	</g>
</g>
<g>
	<g>
		<path d="M408.481,6.708c-43.748-4.352-74.8,15.64-92.336,59.484c-10.776,26.952-13.556,41.08-16.492,56.036
			c-2.372,12.068-4.824,24.548-11.776,45.952c-2.048,6.3,1.4,13.068,7.704,15.12c1.232,0.396,2.484,0.588,3.712,0.588
			c5.06,0,9.764-3.224,11.416-8.3c7.4-22.772,10.108-36.568,12.5-48.744c2.832-14.424,5.284-26.88,15.228-51.744
			c13.456-33.636,34.968-47.768,67.664-44.516c35.748,3.576,45.192,38.232,45.192,56.06c0,32.16-22.236,54.592-72.104,72.72
			c-6.228,2.268-5.452,8.528-3.188,14.76c2.268,6.228,5.16,10.06,11.392,7.796c21.74-7.904,87.9-31.964,87.9-95.276
			C475.292,51.36,454.385,11.292,408.481,6.708z"/>
	</g>
</g>
<g>
</g>
<g>
</g>
<g>
</g>
<g>
</g>
<g>
</g>
<g>
</g>
<g>
</g>
<g>
</g>
<g>
</g>
<g>
</g>
<g>
</g>
<g>
</g>
<g>
</g>
<g>
</g>
<g>
</g>
</svg>
